<svg width="26" height="25" viewBox="0 0 26 25" fill="none" xmlns="http://www.w3.org/2000/svg">
<path d="M18.794 1H7.5163C4.40204 1 1.87744 3.57436 1.87744 6.75V18.25C1.87744 21.4256 4.40204 24 7.5163 24H18.794C21.9083 24 24.4329 21.4256 24.4329 18.25V6.75C24.4329 3.57436 21.9083 1 18.794 1Z" stroke="#70996F" stroke-width="2" stroke-linecap="round" stroke-linejoin="round"/>
<path d="M17.6662 11.7756C17.8054 12.7326 17.6451 13.7101 17.2081 14.5689C16.7711 15.4278 16.0796 16.1242 15.2321 16.5592C14.3846 16.9942 13.4241 17.1456 12.4873 16.9919C11.5505 16.8382 10.6851 16.3872 10.0141 15.703C9.34321 15.0188 8.90091 14.1364 8.75017 13.1811C8.59943 12.2259 8.74791 11.2464 9.1745 10.3822C9.60109 9.51795 10.2841 8.81287 11.1263 8.36724C11.9685 7.92162 12.9271 7.75814 13.8657 7.90006C14.8231 8.04483 15.7094 8.49975 16.3938 9.19762C17.0782 9.89549 17.5243 10.7993 17.6662 11.7756Z" stroke="#70996F" stroke-width="2" stroke-linecap="round" stroke-linejoin="round"/>
<path d="M19.3579 6.175H19.369" stroke="#70996F" stroke-width="2" stroke-linecap="round" stroke-linejoin="round"/>
</svg>
