<svg width="164" height="30" viewBox="0 0 164 30" fill="none" xmlns="http://www.w3.org/2000/svg">
<path d="M65.4661 7V7.41325C64.9918 7.42702 64.6292 7.48212 64.3781 7.57855C64.141 7.66119 63.9806 7.82649 63.8969 8.07445C63.8132 8.30859 63.7714 8.68052 63.7714 9.19021V19.4388C63.7714 19.9347 63.8132 20.3066 63.8969 20.5545C63.9806 20.8025 64.141 20.9678 64.3781 21.0504C64.6292 21.1331 64.9918 21.1882 65.4661 21.2158V21.629C65.1453 21.6014 64.7408 21.5876 64.2526 21.5876C63.7783 21.5739 63.2971 21.567 62.8089 21.567C62.2649 21.567 61.7558 21.5739 61.2815 21.5876C60.8073 21.5876 60.4237 21.6014 60.1308 21.629V21.2158C60.605 21.1882 60.9608 21.1331 61.1979 21.0504C61.4489 20.9678 61.6163 20.8025 61.7 20.5545C61.7837 20.3066 61.8255 19.9347 61.8255 19.4388V8.07445L61.9092 8.13643L56.7832 21.7323H56.4484L51.176 8.32238V19.2321C51.176 19.728 51.2178 20.1207 51.3015 20.4099C51.3991 20.6854 51.5805 20.8851 51.8455 21.0091C52.1244 21.1193 52.5359 21.1882 53.0799 21.2158V21.629C52.8288 21.6014 52.501 21.5876 52.0965 21.5876C51.6921 21.5739 51.3084 21.567 50.9458 21.567C50.5971 21.567 50.2414 21.5739 49.8788 21.5876C49.5301 21.5876 49.2371 21.6014 49 21.629V21.2158C49.4743 21.1882 49.8299 21.1193 50.0671 21.0091C50.3181 20.8851 50.4855 20.6854 50.5692 20.4099C50.6529 20.1207 50.6948 19.728 50.6948 19.2321V9.19021C50.6948 8.68052 50.6529 8.30859 50.5692 8.07445C50.4855 7.82649 50.3181 7.66119 50.0671 7.57855C49.8299 7.48212 49.4743 7.42702 49 7.41325V7C49.2371 7.01378 49.5301 7.02755 49.8788 7.04132C50.2414 7.0551 50.5971 7.06199 50.9458 7.06199C51.2526 7.06199 51.5665 7.0551 51.8873 7.04132C52.2221 7.02755 52.501 7.01378 52.7242 7L57.4736 19.3561L57.118 19.5214L61.8255 7.06199C61.9929 7.06199 62.1533 7.06199 62.3067 7.06199C62.4741 7.06199 62.6415 7.06199 62.8089 7.06199C63.2971 7.06199 63.7783 7.0551 64.2526 7.04132C64.7408 7.02755 65.1453 7.01378 65.4661 7Z" fill="#04180B"/>
<path d="M76.3965 10.9879V11.4011C76.1315 11.4286 75.8874 11.5457 75.6642 11.7524C75.4411 11.959 75.2318 12.324 75.0365 12.8475L71.6052 21.7323H71.2495L67.3998 12.5788C67.1347 12.0416 66.8697 11.718 66.6047 11.6077C66.3537 11.4837 66.1444 11.4217 65.977 11.4217V10.9879C66.2839 11.0292 66.6047 11.0636 66.9395 11.0912C67.2742 11.105 67.6369 11.1118 68.0275 11.1118C68.4599 11.1118 68.9132 11.0981 69.3874 11.0705C69.8756 11.043 70.329 11.0154 70.7474 10.9879V11.4217C70.3987 11.4217 70.0848 11.4493 69.8059 11.5044C69.5409 11.5457 69.3735 11.6904 69.3038 11.9383C69.234 12.1725 69.3177 12.5788 69.5548 13.1574L72.1283 19.4594L72.0028 19.5008L74.3879 13.3434C74.5693 12.8888 74.639 12.5306 74.5972 12.2689C74.5693 11.9934 74.4298 11.7868 74.1787 11.6491C73.9276 11.5113 73.551 11.4286 73.0489 11.4011V10.9879C73.2999 11.0016 73.5162 11.0154 73.6975 11.0292C73.8788 11.0292 74.0532 11.0361 74.2206 11.0498C74.4019 11.0498 74.5972 11.0498 74.8064 11.0498C75.1272 11.0498 75.4132 11.043 75.6642 11.0292C75.9292 11.0154 76.1733 11.0016 76.3965 10.9879ZM71.6052 21.7323L70.8938 23.53C70.7544 23.8743 70.6079 24.1636 70.4545 24.3977C70.315 24.6319 70.1616 24.8248 69.9942 24.9763C69.771 25.1829 69.506 25.3207 69.1991 25.3895C68.8923 25.4722 68.6133 25.5135 68.3622 25.5135C68.0972 25.5135 67.8531 25.4653 67.63 25.3689C67.4207 25.2725 67.2533 25.1278 67.1278 24.9349C67.0023 24.7559 66.9395 24.5355 66.9395 24.2738C66.9395 23.9432 67.0371 23.6746 67.2324 23.468C67.4276 23.2751 67.6997 23.1787 68.0484 23.1787C68.3413 23.1787 68.5923 23.2613 68.8016 23.4266C69.0108 23.5919 69.1154 23.833 69.1154 24.1498C69.1154 24.384 69.0596 24.5768 68.948 24.7284C68.8365 24.8799 68.7039 24.9969 68.5505 25.0796C68.5784 25.0934 68.5994 25.1003 68.6133 25.1003C68.6412 25.1003 68.6621 25.1003 68.676 25.1003C69.0527 25.1003 69.3874 24.9694 69.6804 24.7077C69.9732 24.4597 70.2313 24.0534 70.4545 23.4886L71.2077 21.567L71.6052 21.7323Z" fill="#04180B"/>
<path d="M77.176 7C77.4689 7.01378 77.8524 7.02755 78.3267 7.04132C78.801 7.0551 79.2683 7.06199 79.7286 7.06199C80.3842 7.06199 81.0118 7.0551 81.6119 7.04132C82.2113 7.02755 82.6371 7.02066 82.888 7.02066C84.3525 7.02066 85.4544 7.32371 86.1936 7.92981C86.9329 8.53592 87.3025 9.31419 87.3025 10.2646C87.3025 10.7468 87.1978 11.222 86.9884 11.6904C86.7937 12.145 86.4586 12.5651 85.9842 12.9508C85.524 13.3227 84.9034 13.6257 84.122 13.8599V13.9013C85.2246 14.039 86.0819 14.3007 86.6961 14.6864C87.3236 15.0584 87.7628 15.4991 88.0137 16.0088C88.2652 16.5185 88.3904 17.0557 88.3904 17.6205C88.3904 18.4057 88.188 19.1013 87.7839 19.7074C87.3932 20.2997 86.8212 20.7681 86.0679 21.1124C85.3152 21.4568 84.4151 21.629 83.3694 21.629C83.0623 21.629 82.602 21.6221 81.9885 21.6083C81.3744 21.5808 80.6351 21.567 79.7707 21.567C79.2824 21.567 78.801 21.5739 78.3267 21.5876C77.8524 21.5876 77.4689 21.6014 77.176 21.629V21.2158C77.6503 21.1882 78.0062 21.1331 78.243 21.0504C78.4939 20.9678 78.6618 20.8025 78.7455 20.5545C78.8291 20.3066 78.8706 19.9347 78.8706 19.4388V9.19021C78.8706 8.68052 78.8291 8.30859 78.7455 8.07445C78.6618 7.82649 78.4939 7.66119 78.243 7.57855C78.0062 7.48212 77.6503 7.42702 77.176 7.41325V7ZM82.3645 7.41325C81.723 7.41325 81.3048 7.53034 81.1094 7.76451C80.9141 7.99868 80.8164 8.47393 80.8164 9.19021V19.4388C80.8164 19.9209 80.8586 20.2859 80.9422 20.5339C81.0258 20.7818 81.179 20.9471 81.4025 21.0298C81.6253 21.1124 81.9534 21.1538 82.3856 21.1538C83.7524 21.1538 84.7432 20.8438 85.3567 20.2239C85.9842 19.5903 86.2983 18.6949 86.2983 17.5378C86.2983 16.4771 86.0053 15.6576 85.4193 15.079C84.8479 14.5005 83.8992 14.2112 82.5739 14.2112H80.4193C80.4193 14.2112 80.4193 14.156 80.4193 14.0459C80.4193 13.9219 80.4193 13.8599 80.4193 13.8599H82.2183C83.0412 13.8599 83.6758 13.7084 84.122 13.4054C84.5689 13.0885 84.8754 12.6753 85.0426 12.1656C85.2105 11.6422 85.2941 11.0843 85.2941 10.492C85.2941 9.47258 85.0637 8.70809 84.6034 8.19842C84.1572 7.67497 83.4109 7.41325 82.3645 7.41325Z" fill="#04180B"/>
<path d="M95.0239 10.6985C96.2516 10.6985 97.2066 11.0705 97.8903 11.8143C98.5875 12.5444 98.9367 13.6877 98.9367 15.2443H91.5511L91.53 14.8517H96.9276C96.9557 14.1767 96.9002 13.5568 96.7604 12.9921C96.6212 12.4135 96.3978 11.9521 96.0907 11.6077C95.7983 11.2633 95.4146 11.0912 94.9403 11.0912C94.2987 11.0912 93.7267 11.408 93.2249 12.0416C92.7366 12.6753 92.4435 13.6808 92.3459 15.0584L92.4084 15.141C92.381 15.3476 92.3599 15.5749 92.3459 15.8228C92.3318 16.0708 92.3248 16.3187 92.3248 16.5667C92.3248 17.5034 92.4787 18.3092 92.7851 18.9842C93.0922 19.6592 93.4899 20.1757 93.9776 20.5339C94.48 20.8782 94.9959 21.0504 95.5264 21.0504C95.9445 21.0504 96.3422 20.9884 96.7189 20.8644C97.0955 20.7267 97.4441 20.5063 97.7646 20.2033C98.0857 19.9002 98.3647 19.4939 98.6015 18.9842L99.0203 19.1495C98.8665 19.6041 98.6156 20.0449 98.267 20.4719C97.9184 20.8989 97.4786 21.2502 96.9487 21.5256C96.4188 21.7874 95.8053 21.9182 95.1076 21.9182C94.1034 21.9182 93.2383 21.691 92.5131 21.2364C91.802 20.7818 91.251 20.1551 90.8603 19.3561C90.4837 18.5434 90.2953 17.6136 90.2953 16.5667C90.2953 15.3545 90.4907 14.3145 90.8814 13.4467C91.2721 12.5651 91.823 11.8901 92.5342 11.4217C93.2454 10.9396 94.0753 10.6985 95.0239 10.6985Z" fill="#04180B"/>
<path d="M107.03 10.6985C107.407 10.6985 107.735 10.7743 108.014 10.9259C108.307 11.0774 108.53 11.2771 108.684 11.5251C108.851 11.7592 108.935 12.0278 108.935 12.3309C108.935 12.6753 108.823 12.9783 108.6 13.2401C108.391 13.5017 108.105 13.6326 107.742 13.6326C107.449 13.6326 107.191 13.5431 106.968 13.364C106.745 13.1712 106.633 12.9025 106.633 12.5582C106.633 12.2965 106.703 12.0761 106.843 11.897C106.996 11.7042 107.163 11.5526 107.344 11.4424C107.247 11.3046 107.101 11.2358 106.905 11.2358C106.473 11.2358 106.075 11.3666 105.713 11.6284C105.35 11.8763 105.043 12.2001 104.792 12.5995C104.541 12.9989 104.346 13.426 104.206 13.8806C104.067 14.3214 103.997 14.7346 103.997 15.1203V19.5008C103.997 20.1757 104.192 20.6303 104.583 20.8644C104.987 21.0849 105.531 21.1951 106.214 21.1951V21.629C105.894 21.6152 105.441 21.6014 104.855 21.5876C104.269 21.5601 103.648 21.5463 102.992 21.5463C102.518 21.5463 102.044 21.5601 101.57 21.5876C101.11 21.6014 100.761 21.6152 100.524 21.629V21.1951C101.096 21.1951 101.5 21.0918 101.737 20.8851C101.988 20.6785 102.114 20.2859 102.114 19.7074V13.2401C102.114 12.6202 102.002 12.1656 101.779 11.8763C101.556 11.5733 101.137 11.4217 100.524 11.4217V10.9879C100.97 11.0292 101.402 11.0498 101.821 11.0498C102.225 11.0498 102.609 11.0292 102.971 10.9879C103.348 10.9327 103.69 10.857 103.997 10.7605V13.3434C104.15 12.9439 104.366 12.5444 104.645 12.145C104.938 11.7317 105.287 11.3873 105.692 11.1118C106.096 10.8363 106.543 10.6985 107.03 10.6985Z" fill="#04180B"/>
<path d="M113.691 25.5135C112.951 25.5135 112.254 25.4377 111.598 25.2863C110.942 25.1347 110.413 24.8936 110.008 24.5631C109.618 24.2462 109.422 23.8398 109.422 23.344C109.422 22.8619 109.618 22.4486 110.008 22.1042C110.398 21.7599 110.929 21.4981 111.598 21.3191L111.724 21.6496C111.417 21.7461 111.173 21.9389 110.992 22.2282C110.81 22.5175 110.72 22.8412 110.72 23.1993C110.72 23.833 111.013 24.3151 111.598 24.6457C112.198 24.9901 112.972 25.1623 113.921 25.1623C114.548 25.1623 115.162 25.0796 115.762 24.9143C116.362 24.7628 116.856 24.5011 117.247 24.1292C117.638 23.7572 117.833 23.2682 117.833 22.6621C117.833 22.2075 117.666 21.8356 117.331 21.5463C117.01 21.2433 116.369 21.0918 115.406 21.0918H113.858C113.412 21.0918 112.979 21.0573 112.561 20.9884C112.143 20.9196 111.8 20.775 111.535 20.5545C111.271 20.3341 111.138 19.9967 111.138 19.5421C111.138 19.0738 111.333 18.626 111.724 18.199C112.114 17.7582 112.833 17.3106 113.879 16.856L114.13 17.0419C113.656 17.2899 113.244 17.5447 112.895 17.8065C112.547 18.0544 112.372 18.3506 112.372 18.6949C112.372 19.1357 112.707 19.3561 113.377 19.3561H115.992C116.578 19.3561 117.115 19.4388 117.603 19.6041C118.105 19.7694 118.51 20.0311 118.816 20.3892C119.123 20.7474 119.277 21.2158 119.277 21.7943C119.277 22.4417 119.068 23.0478 118.649 23.6126C118.231 24.1774 117.603 24.6319 116.766 24.9763C115.943 25.3344 114.918 25.5135 113.691 25.5135ZM113.795 17.2279C113.112 17.2279 112.491 17.1177 111.933 16.8973C111.375 16.6631 110.936 16.305 110.615 15.8228C110.294 15.3407 110.134 14.7208 110.134 13.9633C110.134 13.2056 110.294 12.5857 110.615 12.1036C110.936 11.6215 111.375 11.2702 111.933 11.0498C112.491 10.8156 113.112 10.6986 113.795 10.6986C114.493 10.6986 115.113 10.8156 115.657 11.0498C116.215 11.2702 116.655 11.6215 116.975 12.1036C117.296 12.5857 117.457 13.2056 117.457 13.9633C117.457 14.7208 117.296 15.3407 116.975 15.8228C116.655 16.305 116.215 16.6631 115.657 16.8973C115.113 17.1177 114.493 17.2279 113.795 17.2279ZM113.795 16.856C114.325 16.856 114.736 16.6494 115.029 16.2361C115.336 15.8228 115.49 15.0653 115.49 13.9633C115.49 12.8613 115.336 12.1036 115.029 11.6904C114.736 11.2771 114.325 11.0705 113.795 11.0705C113.279 11.0705 112.868 11.2771 112.561 11.6904C112.254 12.1036 112.1 12.8613 112.1 13.9633C112.1 15.0653 112.254 15.8228 112.561 16.2361C112.868 16.6494 113.279 16.856 113.795 16.856ZM116.808 12.4135L116.431 12.2689C116.627 11.8006 116.961 11.3873 117.436 11.0292C117.91 10.671 118.405 10.492 118.921 10.492C119.284 10.492 119.577 10.5953 119.8 10.8019C120.023 10.9947 120.135 11.2909 120.135 11.6904C120.135 12.1174 120.016 12.4204 119.779 12.5995C119.556 12.7648 119.326 12.8475 119.088 12.8475C118.88 12.8475 118.684 12.7786 118.503 12.6408C118.322 12.4893 118.217 12.2552 118.189 11.9383C118.161 11.6215 118.258 11.2151 118.482 10.7192L118.754 10.7812C118.168 11.0016 117.75 11.2358 117.499 11.4837C117.247 11.718 117.017 12.0278 116.808 12.4135Z" fill="#04180B"/>
<path d="M125.774 10.6985C127.002 10.6985 127.958 11.0705 128.641 11.8143C129.338 12.5444 129.687 13.6877 129.687 15.2443H122.301L122.28 14.8517H127.679C127.706 14.1767 127.651 13.5568 127.511 12.9921C127.372 12.4135 127.148 11.9521 126.842 11.6077C126.549 11.2633 126.165 11.0912 125.691 11.0912C125.049 11.0912 124.477 11.408 123.975 12.0416C123.487 12.6753 123.194 13.6808 123.096 15.0584L123.159 15.141C123.131 15.3476 123.11 15.5749 123.096 15.8228C123.082 16.0708 123.076 16.3187 123.076 16.5667C123.076 17.5034 123.229 18.3092 123.536 18.9842C123.842 19.6592 124.24 20.1757 124.729 20.5339C125.23 20.8782 125.747 21.0504 126.277 21.0504C126.695 21.0504 127.093 20.9884 127.469 20.8644C127.846 20.7267 128.194 20.5063 128.516 20.2033C128.836 19.9002 129.115 19.4939 129.352 18.9842L129.771 19.1495C129.617 19.6041 129.366 20.0449 129.017 20.4719C128.669 20.8989 128.23 21.2502 127.699 21.5256C127.169 21.7874 126.556 21.9182 125.858 21.9182C124.854 21.9182 123.989 21.691 123.263 21.2364C122.552 20.7818 122.001 20.1551 121.611 19.3561C121.234 18.5434 121.046 17.6136 121.046 16.5667C121.046 15.3545 121.241 14.3145 121.632 13.4467C122.022 12.5651 122.573 11.8901 123.285 11.4217C123.996 10.9396 124.826 10.6985 125.774 10.6985Z" fill="#04180B"/>
<path d="M138.304 10.6985C138.834 10.6985 139.274 10.7674 139.622 10.9052C139.985 11.043 140.285 11.2358 140.522 11.4837C140.787 11.7592 140.975 12.1036 141.087 12.5168C141.199 12.9301 141.254 13.488 141.254 14.1905V19.7074C141.254 20.2859 141.373 20.6785 141.61 20.8851C141.861 21.0918 142.272 21.1951 142.844 21.1951V21.629C142.608 21.6152 142.244 21.6014 141.757 21.5876C141.268 21.5601 140.794 21.5463 140.334 21.5463C139.873 21.5463 139.42 21.5601 138.974 21.5876C138.542 21.6014 138.213 21.6152 137.991 21.629V21.1951C138.492 21.1951 138.848 21.0918 139.057 20.8851C139.267 20.6785 139.371 20.2859 139.371 19.7074V13.7359C139.371 13.3089 139.336 12.9163 139.267 12.5582C139.197 12.2001 139.036 11.9107 138.785 11.6904C138.548 11.47 138.178 11.3597 137.677 11.3597C137.09 11.3597 136.575 11.5251 136.128 11.8556C135.696 12.1863 135.354 12.6408 135.103 13.2194C134.866 13.7842 134.748 14.4178 134.748 15.1203V19.7074C134.748 20.2859 134.852 20.6785 135.061 20.8851C135.27 21.0918 135.626 21.1951 136.128 21.1951V21.629C135.905 21.6152 135.57 21.6014 135.124 21.5876C134.691 21.5601 134.245 21.5463 133.785 21.5463C133.325 21.5463 132.85 21.5601 132.362 21.5876C131.874 21.6014 131.512 21.6152 131.274 21.629V21.1951C131.846 21.1951 132.251 21.0918 132.488 20.8851C132.739 20.6785 132.864 20.2859 132.864 19.7074V13.2401C132.864 12.6202 132.753 12.1656 132.53 11.8763C132.306 11.5733 131.888 11.4217 131.274 11.4217V10.9879C131.72 11.0292 132.153 11.0498 132.571 11.0498C132.976 11.0498 133.36 11.0292 133.722 10.9879C134.099 10.9327 134.441 10.857 134.748 10.7605V13.1987C135.11 12.262 135.612 11.6146 136.254 11.2564C136.909 10.8845 137.593 10.6985 138.304 10.6985Z" fill="#04180B"/>
<path fill-rule="evenodd" clip-rule="evenodd" d="M19.43 2.28766C12.3937 2.28766 6.68974 8.2385 6.68974 15.5792C6.68974 17.6186 7.12969 19.5495 7.91554 21.2753L7.06311 21.6977C6.21842 19.8427 5.74602 17.7678 5.74602 15.5792C5.74602 7.69471 11.8725 1.3031 19.43 1.3031C20.3142 1.3031 20.6483 1.39064 21.4865 1.55802L20.9556 2.43245C20.1756 2.27669 20.2544 2.28766 19.43 2.28766ZM32.1704 15.5792C32.1704 11.4785 30.7719 8.11461 27.973 5.67569L28.7838 4.86488C31.7882 7.48286 33.1141 11.1744 33.1141 15.5792C33.1141 17.7678 32.6416 19.8427 31.797 21.6977L30.9445 21.2753C31.7304 19.5495 32.1704 17.6186 32.1704 15.5792Z" fill="#70996F"/>
<path fill-rule="evenodd" clip-rule="evenodd" d="M8.96051 21.4865C8.20541 21.4865 7.42478 21.7681 6.61125 22.3785C5.67495 23.0809 4.70576 23.4556 3.71103 23.4556C2.7163 23.4556 1.74711 23.0809 0.81081 22.3785L1.36178 21.5791C2.17531 22.1894 2.95593 22.4711 3.71103 22.4711C4.46613 22.4711 5.24676 22.1894 6.06028 21.5791C6.99658 20.8767 7.96578 20.5019 8.96051 20.5019C9.95522 20.5019 10.9245 20.8767 11.8607 21.5791C12.6743 22.1894 13.4549 22.4711 14.2099 22.4711C14.9651 22.4711 15.7457 22.1894 16.5593 21.5791C17.4955 20.8767 18.4648 20.5019 19.4595 20.5019C20.4542 20.5019 21.4234 20.8767 22.3596 21.5791C23.1732 22.1894 23.9539 22.4711 24.7089 22.4711C25.464 22.4711 26.2446 22.1894 27.0582 21.5791C27.9945 20.8767 28.9637 20.5019 29.9584 20.5019C30.9531 20.5019 31.9224 20.8767 32.8586 21.5791C33.6722 22.1894 34.4528 22.4711 35.2079 22.4711C35.9629 22.4711 36.7436 22.1894 37.5572 21.5791L38.1081 22.3785C37.1718 23.0809 36.2026 23.4556 35.2079 23.4556C34.2131 23.4556 33.244 23.0809 32.3076 22.3785C31.4942 21.7681 30.7135 21.4865 29.9584 21.4865C29.2033 21.4865 28.4226 21.7681 27.6092 22.3785C26.6728 23.0809 25.7037 23.4556 24.7089 23.4556C23.7142 23.4556 22.745 23.0809 21.8087 22.3785C20.9952 21.7681 20.2146 21.4865 19.4595 21.4865C18.7044 21.4865 17.9237 21.7681 17.1102 22.3785C16.1739 23.0809 15.2047 23.4556 14.2099 23.4556C13.2152 23.4556 12.2461 23.0809 11.3098 22.3785C10.4963 21.7681 9.71562 21.4865 8.96051 21.4865Z" fill="#70996F"/>
<path fill-rule="evenodd" clip-rule="evenodd" d="M8.96051 26.4093C8.20541 26.4093 7.42478 26.6909 6.61125 27.3012C5.67495 28.0036 4.70576 28.3784 3.71103 28.3784C2.7163 28.3784 1.74711 28.0036 0.81081 27.3012L1.36178 26.5018C2.17531 27.1122 2.95593 27.3938 3.71103 27.3938C4.46613 27.3938 5.24676 27.1122 6.06028 26.5018C6.99658 25.7994 7.96578 25.4247 8.96051 25.4247C9.95522 25.4247 10.9245 25.7994 11.8607 26.5018C12.6743 27.1122 13.4549 27.3938 14.2099 27.3938C14.9651 27.3938 15.7457 27.1122 16.5593 26.5018C17.4955 25.7994 18.4648 25.4247 19.4595 25.4247C20.4542 25.4247 21.4234 25.7994 22.3596 26.5018C23.1732 27.1122 23.9539 27.3938 24.7089 27.3938C25.464 27.3938 26.2446 27.1122 27.0582 26.5018C27.9945 25.7994 28.9637 25.4247 29.9584 25.4247C30.9531 25.4247 31.9224 25.7994 32.8586 26.5018C33.6722 27.1122 34.4528 27.3938 35.2079 27.3938C35.9629 27.3938 36.7436 27.1122 37.5572 26.5018L38.1081 27.3012C37.1718 28.0036 36.2026 28.3784 35.2079 28.3784C34.2131 28.3784 33.244 28.0036 32.3076 27.3012C31.4942 26.6909 30.7135 26.4093 29.9584 26.4093C29.2033 26.4093 28.4226 26.6909 27.6092 27.3012C26.6728 28.0036 25.7037 28.3784 24.7089 28.3784C23.7142 28.3784 22.745 28.0036 21.8087 27.3012C20.9952 26.6909 20.2146 26.4093 19.4595 26.4093C18.7044 26.4093 17.9237 26.6909 17.1102 27.3012C16.1739 28.0036 15.2047 28.3784 14.2099 28.3784C13.2152 28.3784 12.2461 28.0036 11.3098 27.3012C10.4963 26.6909 9.71562 26.4093 8.96051 26.4093Z" fill="#70996F"/>
<path fill-rule="evenodd" clip-rule="evenodd" d="M14.7164 7.96539L23.0805 17.4613L22.3856 18.1275L14.7064 9.40914L6.79657 18.1327L6.11098 17.4561L14.7164 7.96539Z" fill="#70996F"/>
<path fill-rule="evenodd" clip-rule="evenodd" d="M25.7677 10.1856L32.9699 17.4402L32.3145 18.1486L25.8326 11.6195L21.9117 16.3918L21.1952 15.7511L25.7677 10.1856Z" fill="#70996F"/>
<path fill-rule="evenodd" clip-rule="evenodd" d="M25.0924 4.74904C25.8742 4.74904 26.508 4.08784 26.508 3.27221C26.508 2.45658 25.8742 1.79538 25.0924 1.79538C24.3106 1.79538 23.6768 2.45658 23.6768 3.27221C23.6768 4.08784 24.3106 4.74904 25.0924 4.74904ZM25.0924 5.7336C26.3954 5.7336 27.4517 4.6316 27.4517 3.27221C27.4517 1.91283 26.3954 0.810822 25.0924 0.810822C23.7894 0.810822 22.7331 1.91283 22.7331 3.27221C22.7331 4.6316 23.7894 5.7336 25.0924 5.7336Z" fill="#70996F"/>
<path fill-rule="evenodd" clip-rule="evenodd" d="M19.43 2.28767C12.3937 2.28767 6.68974 8.23851 6.68974 15.5792C6.68974 17.6186 7.12969 19.5495 7.91554 21.2753L7.06311 21.6977C6.21842 19.8427 5.74602 17.7678 5.74602 15.5792C5.74602 7.69473 11.8725 1.30311 19.43 1.30311C20.3142 1.30311 20.1174 1.28407 20.9556 1.45145L20.4248 2.32588C19.6448 2.17012 20.2544 2.28767 19.43 2.28767ZM32.1704 15.5792C32.1704 11.4785 31.13 8.43893 28.3311 6.00001L29.1419 5.1892C32.1463 7.80718 33.1141 11.1745 33.1141 15.5792C33.1141 17.7678 32.6416 19.8427 31.797 21.6977L30.9445 21.2753C31.7304 19.5495 32.1704 17.6186 32.1704 15.5792Z" fill="#70996F" stroke="#70996F"/>
<path fill-rule="evenodd" clip-rule="evenodd" d="M8.96051 21.4865C8.20541 21.4865 7.42478 21.7681 6.61125 22.3785C5.67495 23.0809 4.70576 23.4556 3.71103 23.4556C2.7163 23.4556 1.74711 23.0809 0.81081 22.3785L1.36178 21.5791C2.17531 22.1894 2.95593 22.4711 3.71103 22.4711C4.46613 22.4711 5.24676 22.1894 6.06028 21.5791C6.99658 20.8767 7.96578 20.5019 8.96051 20.5019C9.95522 20.5019 10.9245 20.8767 11.8607 21.5791C12.6743 22.1894 13.4549 22.4711 14.2099 22.4711C14.9651 22.4711 15.7457 22.1894 16.5593 21.5791C17.4955 20.8767 18.4648 20.5019 19.4595 20.5019C20.4542 20.5019 21.4234 20.8767 22.3596 21.5791C23.1732 22.1894 23.9539 22.4711 24.7089 22.4711C25.464 22.4711 26.2446 22.1894 27.0582 21.5791C27.9945 20.8767 28.9637 20.5019 29.9584 20.5019C30.9531 20.5019 31.9224 20.8767 32.8586 21.5791C33.6722 22.1894 34.4528 22.4711 35.2079 22.4711C35.9629 22.4711 36.7436 22.1894 37.5572 21.5791L38.1081 22.3785C37.1718 23.0809 36.2026 23.4556 35.2079 23.4556C34.2131 23.4556 33.244 23.0809 32.3076 22.3785C31.4942 21.7681 30.7135 21.4865 29.9584 21.4865C29.2033 21.4865 28.4226 21.7681 27.6092 22.3785C26.6728 23.0809 25.7037 23.4556 24.7089 23.4556C23.7142 23.4556 22.745 23.0809 21.8087 22.3785C20.9952 21.7681 20.2146 21.4865 19.4595 21.4865C18.7044 21.4865 17.9237 21.7681 17.1102 22.3785C16.1739 23.0809 15.2047 23.4556 14.2099 23.4556C13.2152 23.4556 12.2461 23.0809 11.3098 22.3785C10.4963 21.7681 9.71562 21.4865 8.96051 21.4865Z" fill="#70996F" stroke="#70996F"/>
<path fill-rule="evenodd" clip-rule="evenodd" d="M8.96051 26.4093C8.20541 26.4093 7.42478 26.6909 6.61125 27.3012C5.67495 28.0036 4.70576 28.3784 3.71103 28.3784C2.7163 28.3784 1.74711 28.0036 0.81081 27.3012L1.36178 26.5018C2.17531 27.1122 2.95593 27.3938 3.71103 27.3938C4.46613 27.3938 5.24676 27.1122 6.06028 26.5018C6.99658 25.7994 7.96578 25.4247 8.96051 25.4247C9.95522 25.4247 10.9245 25.7994 11.8607 26.5018C12.6743 27.1122 13.4549 27.3938 14.2099 27.3938C14.9651 27.3938 15.7457 27.1122 16.5593 26.5018C17.4955 25.7994 18.4648 25.4247 19.4595 25.4247C20.4542 25.4247 21.4234 25.7994 22.3596 26.5018C23.1732 27.1122 23.9539 27.3938 24.7089 27.3938C25.464 27.3938 26.2446 27.1122 27.0582 26.5018C27.9945 25.7994 28.9637 25.4247 29.9584 25.4247C30.9531 25.4247 31.9224 25.7994 32.8586 26.5018C33.6722 27.1122 34.4528 27.3938 35.2079 27.3938C35.9629 27.3938 36.7436 27.1122 37.5572 26.5018L38.1081 27.3012C37.1718 28.0036 36.2026 28.3784 35.2079 28.3784C34.2131 28.3784 33.244 28.0036 32.3076 27.3012C31.4942 26.6909 30.7135 26.4093 29.9584 26.4093C29.2033 26.4093 28.4226 26.6909 27.6092 27.3012C26.6728 28.0036 25.7037 28.3784 24.7089 28.3784C23.7142 28.3784 22.745 28.0036 21.8087 27.3012C20.9952 26.6909 20.2146 26.4093 19.4595 26.4093C18.7044 26.4093 17.9237 26.6909 17.1102 27.3012C16.1739 28.0036 15.2047 28.3784 14.2099 28.3784C13.2152 28.3784 12.2461 28.0036 11.3098 27.3012C10.4963 26.6909 9.71562 26.4093 8.96051 26.4093Z" fill="#70996F" stroke="#70996F"/>
<path fill-rule="evenodd" clip-rule="evenodd" d="M14.7164 7.96539L23.0805 17.4613L22.3856 18.1275L14.7064 9.40914L6.79657 18.1327L6.11098 17.4561L14.7164 7.96539Z" fill="#70996F" stroke="#70996F"/>
<path fill-rule="evenodd" clip-rule="evenodd" d="M25.66 10L33 17.2884L32.332 18L25.7261 11.4406L21.7302 16.2351L21 15.5914L25.66 10Z" fill="#70996F" stroke="#70996F"/>
<path fill-rule="evenodd" clip-rule="evenodd" d="M25.0924 4.74904C25.8742 4.74904 26.508 4.08784 26.508 3.27221C26.508 2.45658 25.8742 1.79538 25.0924 1.79538C24.3106 1.79538 23.6768 2.45658 23.6768 3.27221C23.6768 4.08784 24.3106 4.74904 25.0924 4.74904ZM25.0924 5.7336C26.3954 5.7336 27.4517 4.6316 27.4517 3.27221C27.4517 1.91283 26.3954 0.810822 25.0924 0.810822C23.7894 0.810822 22.7331 1.91283 22.7331 3.27221C22.7331 4.6316 23.7894 5.7336 25.0924 5.7336Z" fill="#70996F" stroke="#70996F"/>
</svg>
