<svg width="28" height="23" viewBox="0 0 28 23" fill="none" xmlns="http://www.w3.org/2000/svg">
<path d="M26.7157 1.16147C25.6358 1.93827 24.44 2.53239 23.1745 2.92097C22.4953 2.1246 21.5927 1.56016 20.5886 1.30398C19.5845 1.0478 18.5276 1.11224 17.5606 1.48859C16.5936 1.86493 15.7633 2.53503 15.182 3.40824C14.6007 4.28145 14.2964 5.31565 14.3103 6.37097V7.52097C12.3284 7.57337 10.3645 7.12515 8.5936 6.21623C6.8227 5.30731 5.29973 3.9659 4.16033 2.31147C4.16033 2.31147 -0.350757 12.6615 9.79918 17.2615C7.47657 18.8691 4.70973 19.6752 1.90479 19.5615C12.0547 25.3115 24.4602 19.5615 24.4602 6.33647C24.4592 6.01614 24.429 5.6966 24.37 5.38197C25.521 4.22448 26.3332 2.76309 26.7157 1.16147V1.16147Z" stroke="#70996F" stroke-width="2" stroke-linecap="round" stroke-linejoin="round"/>
</svg>
