<svg width="27" height="21" viewBox="0 0 27 21" fill="none" xmlns="http://www.w3.org/2000/svg">
<path d="M25.4803 4.08305C25.3464 3.53727 25.0735 3.03721 24.6894 2.63337C24.3052 2.22953 23.8234 1.93621 23.2925 1.78305C21.3527 1.30005 13.5936 1.30005 13.5936 1.30005C13.5936 1.30005 5.83456 1.30005 3.8948 1.82905C3.36389 1.98221 2.88203 2.27553 2.49788 2.67937C2.11372 3.08321 1.84089 3.58327 1.70692 4.12905C1.35191 6.13644 1.17826 8.1728 1.18814 10.2125C1.17549 12.2677 1.34915 14.3195 1.70692 16.342C1.85461 16.8709 2.13356 17.3519 2.51682 17.7387C2.90008 18.1255 3.37469 18.4049 3.8948 18.55C5.83456 19.079 13.5936 19.079 13.5936 19.079C13.5936 19.079 21.3527 19.079 23.2925 18.55C23.8234 18.3969 24.3052 18.1036 24.6894 17.6997C25.0735 17.2959 25.3464 16.7958 25.4803 16.25C25.8326 14.2578 26.0062 12.2369 25.9991 10.2125C26.0118 8.15745 25.8381 6.10555 25.4803 4.08305V4.08305Z" stroke="#70996F" stroke-width="2" stroke-linecap="round" stroke-linejoin="round"/>
<path d="M11.0562 13.973L17.5408 10.2125L11.0562 6.45203V13.973Z" stroke="#70996F" stroke-width="2" stroke-linecap="round" stroke-linejoin="round"/>
</svg>
